<svg xmlns="http://www.w3.org/2000/svg" viewBox="0 0 509.34 98.04"><defs><style>.cls-1,.cls-2,.cls-3,.cls-4,.cls-5{fill:#446ba6;}.cls-1{opacity:0.05;}.cls-2{opacity:0.2;}.cls-3{opacity:0.4;}.cls-4{opacity:0.6;}.cls-5{opacity:0.8;}.cls-6,.cls-7{fill:#272a41;}.cls-7{font-size:67px;font-family:BodoniSvtyTwoSCITCTT-Book, "Bodoni 72 Smallcaps";letter-spacing:0em;}</style></defs><g id="Strata_flow" data-name="Strata flow"><path class="cls-1" d="M85.53,58.38C80.14,57.12,75,62.53,72.14,76.6A34.2,34.2,0,0,0,85.6,58.38Z"/><path class="cls-2" d="M87.05,46.58h0c-9.5,0-18.26,8.89-19.69,23.3-1,9.87-8,12-14.38,12.6A34,34,0,0,0,72.14,76.6c2.83-14.07,8-19.48,13.39-18.22h.07a33.83,33.83,0,0,0,1.5-10C87.1,47.77,87.08,47.17,87.05,46.58Z"/><path class="cls-3" d="M67.36,69.88c1.43-14.41,10.19-23.3,19.69-23.3a34.09,34.09,0,0,0-.91-6.27h0c-9.5,0-17.42,7.95-20.3,22.13-1.91,9.37-10.69,15.43-19.21,19.45a34.09,34.09,0,0,0,6.35.59C59.34,81.89,66.38,79.75,67.36,69.88Z"/><path class="cls-4" d="M86.14,40.31a33.87,33.87,0,0,0-3.51-8.84h0c-9.51,0-21.42,8.12-21.42,22.59S50.37,78.25,32.85,75.91a34,34,0,0,0,13.78,6c8.52-4,17.3-10.08,19.21-19.45,2.88-14.18,10.8-22.13,20.3-22.13Z"/><path class="cls-5" d="M82.63,31.47A35.36,35.36,0,0,0,79,26.33h0c-9.43.2-21.32,5.7-22.63,25.55-1,14.46-16.32,21.63-26,22h0c.79.7,1.63,1.38,2.49,2,17.52,2.34,28.36-7.37,28.36-21.85S73.12,31.47,82.63,31.47Z"/><path class="cls-6" d="M75.43,22.68c-9.62.39-25.56,7.68-25.86,22.17C49.18,63.51,36.5,70.13,26.9,70.36a35,35,0,0,0,3.46,3.54c9.72-.39,25.08-7.56,26-22C57.71,32,69.6,26.53,79,26.33A34.46,34.46,0,0,0,75.43,22.68Z"/><path class="cls-5" d="M49.57,44.85c.3-14.49,16.24-21.78,25.86-22.17q-.89-.76-1.8-1.47h0c-22.81,1.63-26.9,11.34-30.82,27.84C40,60.67,31.18,60.67,24.73,67.49h0l.5.72.06.08.47.64,0,.06c.17.22.34.45.52.67h0l.56.69C36.5,70.13,49.18,63.51,49.57,44.85Z"/><path class="cls-4" d="M73.63,21.21h0l-1.51-1.08h0c-18-1.41-28,6.75-29.87,16.44C39.37,51,28.18,54.26,21.16,60.67h0l3.57,6.82h0C31.18,60.67,40,60.67,42.81,49.05c3.92-16.5,8-26.21,30.82-27.84Z"/><path class="cls-3" d="M72.1,20.11a33.89,33.89,0,0,0-10.89-4.86h0c-10.39,0-15,6.73-21.17,15.58C31.92,42.45,28.18,44.87,18.88,49a34,34,0,0,0,2.28,11.63c7-6.41,18.21-9.69,21.07-24.12C44.14,26.86,54.08,18.7,72.1,20.11Z"/><path class="cls-2" d="M47.81,14.64h0l-.86.15c-8.67,1.82-8.57,13.64-17.84,18.9-4.69,2.67-7.16,2.38-7.92,2.37a34,34,0,0,0-2.29,12.31c0,.22,0,.45,0,.67,9.3-4.17,13-6.59,21.16-18.21C46.23,22,50.82,15.25,61.21,15.25h0a34.29,34.29,0,0,0-8.23-1A33.92,33.92,0,0,0,47.81,14.64Z"/><path class="cls-1" d="M29.08,33.69c9.27-5.26,9.17-17.08,17.84-18.9A34.16,34.16,0,0,0,21.16,36.06C21.92,36.07,24.39,36.36,29.08,33.69Z"/><text class="cls-7" transform="translate(98.04 72.04)">Sonar Systems</text></g></svg>